<svg xmlns="http://www.w3.org/2000/svg" width="237" height="19" viewBox="0 0 237 19">
  <path fill="#000000" fill-rule="evenodd" d="M139.248,27.584 C139.248,26.816 138.648,26.216 137.88,26.216 C137.112,26.216 136.512,26.816 136.512,27.584 C136.512,28.352 137.112,28.952 137.88,28.952 C138.648,28.952 139.248,28.352 139.248,27.584 Z M138.552,43.328 L138.552,31.928 C138.552,31.472 138.192,31.256 137.88,31.256 C137.52,31.256 137.184,31.496 137.184,31.928 L137.184,43.328 C137.184,43.784 137.544,44 137.88,44 C138.24,44 138.552,43.76 138.552,43.328 Z M152.364,43.328 L152.364,36.32 C152.364,33.32 149.868,30.848 146.892,30.848 C145.284,30.848 143.868,31.52 142.788,32.696 L142.788,31.928 C142.788,31.496 142.428,31.256 142.116,31.256 C141.78,31.256 141.42,31.496 141.42,31.928 L141.42,43.328 C141.42,43.76 141.78,44 142.116,44 C142.428,44 142.788,43.76 142.788,43.328 L142.788,36.32 C142.788,34.04 144.636,32.216 146.892,32.216 C149.172,32.216 150.996,34.04 150.996,36.32 L150.996,43.328 C150.996,43.76 151.356,44 151.692,44 C152.004,44 152.364,43.76 152.364,43.328 Z M160.104,27.608 C160.104,27.248 159.84,26.912 159.408,26.912 L158.64,26.912 C157.344,26.912 156.264,27.968 156.264,29.288 L156.264,31.256 L154.608,31.256 C154.176,31.256 153.936,31.616 153.936,31.928 C153.936,32.264 154.176,32.624 154.608,32.624 L156.264,32.624 L156.264,43.328 C156.264,43.784 156.6,44 156.936,44 C157.272,44 157.608,43.76 157.608,43.328 L157.608,32.624 L159.408,32.624 C159.84,32.624 160.08,32.264 160.08,31.928 C160.08,31.616 159.864,31.256 159.408,31.256 L157.608,31.256 L157.608,29.288 C157.608,28.736 158.088,28.256 158.664,28.256 L159.408,28.256 C159.864,28.256 160.104,27.944 160.104,27.608 Z M173.364,37.616 C173.364,41.24 171.204,44.408 167.34,44.408 C163.476,44.408 161.316,41.24 161.316,37.616 C161.316,34.016 163.476,30.848 167.34,30.848 C171.204,30.848 173.364,34.016 173.364,37.616 Z M171.996,37.616 C171.996,34.496 170.196,32.216 167.34,32.216 C164.508,32.216 162.684,34.496 162.684,37.616 C162.684,40.736 164.508,43.04 167.34,43.04 C170.196,43.04 171.996,40.736 171.996,37.616 Z M181.848,31.736 C181.848,31.424 181.584,31.064 181.152,31.064 C179.544,31.064 178.128,31.736 177.048,32.912 L177.048,31.928 C177.048,31.496 176.688,31.256 176.376,31.256 C176.04,31.256 175.68,31.496 175.68,31.928 L175.68,43.328 C175.68,43.76 176.04,44 176.376,44 C176.688,44 177.048,43.76 177.048,43.328 L177.048,36.536 C177.048,34.256 178.896,32.432 181.152,32.432 C181.584,32.432 181.848,32.072 181.848,31.736 Z M199.38,43.328 L199.38,35.24 C199.38,32.816 197.436,30.848 194.94,30.848 C193.38,30.848 192.012,31.664 191.22,32.888 C190.38,31.616 189.012,30.848 187.476,30.848 C186.3,30.848 185.22,31.304 184.428,32.072 L184.428,31.928 C184.428,31.496 184.068,31.256 183.756,31.256 C183.42,31.256 183.06,31.496 183.06,31.928 L183.06,43.328 C183.06,43.76 183.42,44 183.756,44 C184.068,44 184.428,43.76 184.428,43.328 L184.428,35.24 C184.428,33.608 185.82,32.216 187.5,32.216 C189.132,32.216 190.524,33.608 190.524,35.264 L190.524,43.328 C190.524,43.76 190.884,44 191.22,44 C191.556,44 191.892,43.76 191.892,43.328 L191.892,35.24 C191.892,33.608 193.308,32.216 194.964,32.216 C196.62,32.216 198.012,33.608 198.012,35.264 L198.012,43.328 C198.012,43.76 198.348,44 198.684,44 C199.02,44 199.38,43.76 199.38,43.328 Z M215.256,43.328 C215.256,43.64 215.04,44 214.56,44 L214.536,44 C213.744,44 212.616,43.568 212.16,42.128 C211.152,43.544 209.592,44.408 207.504,44.408 C203.592,44.408 201.48,41.192 201.48,37.616 C201.48,33.992 203.64,30.848 207.504,30.848 C209.592,30.848 211.152,31.712 212.16,33.104 L212.16,31.928 C212.16,31.544 212.472,31.256 212.856,31.256 C213.192,31.256 213.528,31.496 213.528,31.928 L213.528,41.6 C213.528,43.136 215.256,42.176 215.256,43.328 Z M212.16,37.616 C212.16,34.496 210.36,32.216 207.504,32.216 C204.672,32.216 202.848,34.496 202.848,37.616 C202.848,40.736 204.672,43.04 207.504,43.04 C210.36,43.04 212.16,40.736 212.16,37.616 Z M221.964,43.328 C221.964,42.992 221.724,42.632 221.292,42.632 L220.548,42.632 C219.42,42.632 219.084,42.368 219.084,41.192 L219.084,32.624 L221.292,32.624 C221.724,32.624 221.964,32.264 221.964,31.928 C221.964,31.616 221.724,31.256 221.292,31.256 L219.084,31.256 L219.084,27.584 C219.084,27.152 218.748,26.912 218.412,26.912 C218.076,26.912 217.716,27.152 217.716,27.584 L217.716,31.256 L216.492,31.256 C216.06,31.256 215.82,31.616 215.82,31.928 C215.82,32.264 216.06,32.624 216.492,32.624 L217.716,32.624 L217.716,41.192 C217.716,43.064 218.652,44 220.548,44 L221.292,44 C221.724,44 221.964,43.64 221.964,43.328 Z M225.672,27.584 C225.672,26.816 225.072,26.216 224.304,26.216 C223.536,26.216 222.936,26.816 222.936,27.584 C222.936,28.352 223.536,28.952 224.304,28.952 C225.072,28.952 225.672,28.352 225.672,27.584 Z M224.976,43.328 L224.976,31.928 C224.976,31.472 224.616,31.256 224.304,31.256 C223.944,31.256 223.608,31.496 223.608,31.928 L223.608,43.328 C223.608,43.784 223.968,44 224.304,44 C224.664,44 224.976,43.76 224.976,43.328 Z M239.34,37.616 C239.34,41.24 237.18,44.408 233.316,44.408 C229.452,44.408 227.292,41.24 227.292,37.616 C227.292,34.016 229.452,30.848 233.316,30.848 C237.18,30.848 239.34,34.016 239.34,37.616 Z M237.972,37.616 C237.972,34.496 236.172,32.216 233.316,32.216 C230.484,32.216 228.66,34.496 228.66,37.616 C228.66,40.736 230.484,43.04 233.316,43.04 C236.172,43.04 237.972,40.736 237.972,37.616 Z M252.6,43.328 L252.6,36.32 C252.6,33.32 250.104,30.848 247.128,30.848 C245.52,30.848 244.104,31.52 243.024,32.696 L243.024,31.928 C243.024,31.496 242.664,31.256 242.352,31.256 C242.016,31.256 241.656,31.496 241.656,31.928 L241.656,43.328 C241.656,43.76 242.016,44 242.352,44 C242.664,44 243.024,43.76 243.024,43.328 L243.024,36.32 C243.024,34.04 244.872,32.216 247.128,32.216 C249.408,32.216 251.232,34.04 251.232,36.32 L251.232,43.328 C251.232,43.76 251.592,44 251.928,44 C252.24,44 252.6,43.76 252.6,43.328 Z M262.656,27.584 C262.656,26.816 262.056,26.216 261.288,26.216 C260.52,26.216 259.92,26.816 259.92,27.584 C259.92,28.352 260.52,28.952 261.288,28.952 C262.056,28.952 262.656,28.352 262.656,27.584 Z M261.96,43.328 L261.96,31.928 C261.96,31.472 261.6,31.256 261.288,31.256 C260.928,31.256 260.592,31.496 260.592,31.928 L260.592,43.328 C260.592,43.784 260.952,44 261.288,44 C261.648,44 261.96,43.76 261.96,43.328 Z M273.708,40.76 C273.708,35.84 265.836,37.616 265.836,34.256 C265.836,33.08 266.964,32.264 269.076,32.264 C270.132,32.264 271.476,32.552 272.22,33.272 C272.364,33.416 272.532,33.464 272.676,33.464 C273.06,33.464 273.42,33.104 273.42,32.744 C273.42,32.6 273.348,32.432 273.204,32.288 C272.244,31.328 270.324,30.896 269.076,30.896 C266.892,30.896 264.468,31.832 264.468,34.256 C264.468,39.056 272.34,37.136 272.34,40.76 C272.34,42.32 271.164,43.088 268.836,43.088 C267.66,43.088 266.124,42.872 265.26,41.816 C265.116,41.6 264.876,41.48 264.732,41.48 C264.372,41.48 264.036,41.816 264.036,42.2 C264.036,42.296 264.036,42.416 264.132,42.56 C264.972,43.952 267.396,44.456 268.836,44.456 C271.308,44.456 273.708,43.496 273.708,40.76 Z M293.076,37.616 C293.076,41.24 290.916,44.408 287.052,44.408 C284.964,44.408 283.404,43.544 282.396,42.128 L282.396,43.328 C282.396,43.76 282.036,44 281.724,44 C281.388,44 281.028,43.76 281.028,43.328 L281.028,27.584 C281.028,27.152 281.388,26.912 281.724,26.912 C282.036,26.912 282.396,27.152 282.396,27.584 L282.396,33.104 C283.404,31.712 284.964,30.848 287.052,30.848 C290.916,30.848 293.076,34.016 293.076,37.616 Z M291.708,37.616 C291.708,34.496 289.908,32.216 287.052,32.216 C284.196,32.216 282.396,34.496 282.396,37.616 C282.396,40.736 284.196,43.04 287.052,43.04 C289.908,43.04 291.708,40.736 291.708,37.616 Z M306.888,37.616 C306.888,37.976 306.552,38.312 306.216,38.312 L296.256,38.312 C296.472,41.048 298.248,43.04 300.864,43.04 C302.16,43.04 303.696,42.464 304.392,41.384 C304.56,41.12 304.752,41.048 304.968,41.048 C305.328,41.048 305.712,41.336 305.712,41.696 C305.712,41.912 305.712,41.96 305.256,42.488 C304.152,43.784 302.544,44.408 300.864,44.408 C297,44.408 294.84,41.24 294.84,37.616 C294.84,34.016 297,30.848 300.864,30.848 C304.728,30.848 306.888,34.04 306.888,37.616 Z M305.496,36.944 C305.28,34.208 303.504,32.216 300.864,32.216 C297.984,32.216 296.472,34.424 296.256,36.944 L305.496,36.944 Z M322.428,43.328 C322.428,43.64 322.212,44 321.732,44 L321.708,44 C320.916,44 319.788,43.568 319.332,42.128 C318.324,43.544 316.764,44.408 314.676,44.408 C310.764,44.408 308.652,41.192 308.652,37.616 C308.652,33.992 310.812,30.848 314.676,30.848 C316.764,30.848 318.324,31.712 319.332,33.104 L319.332,31.928 C319.332,31.544 319.644,31.256 320.028,31.256 C320.364,31.256 320.7,31.496 320.7,31.928 L320.7,41.6 C320.7,43.136 322.428,42.176 322.428,43.328 Z M319.332,37.616 C319.332,34.496 317.532,32.216 314.676,32.216 C311.844,32.216 310.02,34.496 310.02,37.616 C310.02,40.736 311.844,43.04 314.676,43.04 C317.532,43.04 319.332,40.736 319.332,37.616 Z M334.8,43.328 L334.8,31.928 C334.8,31.496 334.44,31.256 334.128,31.256 C333.792,31.256 333.432,31.496 333.432,31.928 L333.432,38.936 C333.432,41.216 331.608,43.04 329.328,43.04 C327.048,43.04 325.224,41.216 325.224,38.936 L325.224,31.928 C325.224,31.496 324.864,31.256 324.552,31.256 C324.216,31.256 323.856,31.496 323.856,31.928 L323.856,38.936 C323.856,41.912 326.352,44.408 329.328,44.408 C330.96,44.408 332.424,43.736 333.432,42.56 L333.432,43.328 C333.432,43.76 333.792,44 334.128,44 C334.44,44 334.8,43.76 334.8,43.328 Z M342.732,43.328 C342.732,42.992 342.492,42.632 342.06,42.632 L341.316,42.632 C340.188,42.632 339.852,42.368 339.852,41.192 L339.852,32.624 L342.06,32.624 C342.492,32.624 342.732,32.264 342.732,31.928 C342.732,31.616 342.492,31.256 342.06,31.256 L339.852,31.256 L339.852,27.584 C339.852,27.152 339.516,26.912 339.18,26.912 C338.844,26.912 338.484,27.152 338.484,27.584 L338.484,31.256 L337.26,31.256 C336.828,31.256 336.588,31.616 336.588,31.928 C336.588,32.264 336.828,32.624 337.26,32.624 L338.484,32.624 L338.484,41.192 C338.484,43.064 339.42,44 341.316,44 L342.06,44 C342.492,44 342.732,43.64 342.732,43.328 Z M346.44,27.584 C346.44,26.816 345.84,26.216 345.072,26.216 C344.304,26.216 343.704,26.816 343.704,27.584 C343.704,28.352 344.304,28.952 345.072,28.952 C345.84,28.952 346.44,28.352 346.44,27.584 Z M345.744,43.328 L345.744,31.928 C345.744,31.472 345.384,31.256 345.072,31.256 C344.712,31.256 344.376,31.496 344.376,31.928 L344.376,43.328 C344.376,43.784 344.736,44 345.072,44 C345.432,44 345.744,43.76 345.744,43.328 Z M353.7,27.608 C353.7,27.248 353.436,26.912 353.004,26.912 L352.236,26.912 C350.94,26.912 349.86,27.968 349.86,29.288 L349.86,31.256 L348.204,31.256 C347.772,31.256 347.532,31.616 347.532,31.928 C347.532,32.264 347.772,32.624 348.204,32.624 L349.86,32.624 L349.86,43.328 C349.86,43.784 350.196,44 350.532,44 C350.868,44 351.204,43.76 351.204,43.328 L351.204,32.624 L353.004,32.624 C353.436,32.624 353.676,32.264 353.676,31.928 C353.676,31.616 353.46,31.256 353.004,31.256 L351.204,31.256 L351.204,29.288 C351.204,28.736 351.684,28.256 352.26,28.256 L353.004,28.256 C353.46,28.256 353.7,27.944 353.7,27.608 Z M366.192,43.328 L366.192,31.928 C366.192,31.496 365.832,31.256 365.52,31.256 C365.184,31.256 364.824,31.496 364.824,31.928 L364.824,38.936 C364.824,41.216 363,43.04 360.72,43.04 C358.44,43.04 356.616,41.216 356.616,38.936 L356.616,31.928 C356.616,31.496 356.256,31.256 355.944,31.256 C355.608,31.256 355.248,31.496 355.248,31.928 L355.248,38.936 C355.248,41.912 357.744,44.408 360.72,44.408 C362.352,44.408 363.816,43.736 364.824,42.56 L364.824,43.328 C364.824,43.76 365.184,44 365.52,44 C365.832,44 366.192,43.76 366.192,43.328 Z M372.132,43.328 C372.132,42.248 370.428,43.136 370.428,41.6 L370.428,27.584 C370.428,27.152 370.068,26.912 369.756,26.912 C369.42,26.912 369.06,27.152 369.06,27.584 L369.06,41.6 C369.06,42.944 370.14,44.144 371.436,44.144 C371.844,44.144 372.132,43.736 372.132,43.328 Z" transform="translate(-136 -26)"/>
</svg>
