<svg xmlns="http://www.w3.org/2000/svg" width="16" height="16" viewBox="0 0 16 16">
  <g fill="none" fill-rule="evenodd">
    <path fill="#FF9200" d="M7.99713565 0C6.04830452 2.14080554 6.26830825 3.46109236 6.37989668 3.81225217 6.88151577 3.61366707 7.42650097 3.50207864 7.99713565 3.49626123 8.5540201 3.50207864 9.11275554 3.61366707 9.61437462 3.81225217 9.72596305 3.46109236 9.94623121 2.14080554 7.99713565 0M7.99713565 15.9943242C6.04830452 13.8535186 6.26830825 12.5332318 6.37989668 12.182072 6.88151577 12.3806571 7.42650097 12.4922456 7.99713565 12.498063 8.5540201 12.4922456 9.11275554 12.3806571 9.61437462 12.182072 9.72596305 12.5332318 9.94623121 13.8535186 7.99713565 15.9943242"/>
    <path fill="#7D7C7B" d="M15.9943242,7.99713565 C13.8535186,6.04830452 12.5332318,6.26830825 12.182072,6.37989668 C12.3806571,6.88151577 12.4922456,7.42650097 12.498063,7.99713565 C12.4922456,8.5540201 12.3806571,9.11275554 12.182072,9.61437462 C12.5332318,9.72596305 13.8535186,9.94623121 15.9943242,7.99713565"/>
    <path fill="#FF020B" d="M0,7.99713565 C2.14080554,6.04830452 3.46109236,6.26830825 3.81225217,6.37989668 C3.61366707,6.88151577 3.50207864,7.42650097 3.49626123,7.99713565 C3.50207864,8.5540201 3.61366707,9.11275554 3.81225217,9.61437462 C3.46109236,9.72596305 2.14080554,9.94623121 0,7.99713565"/>
    <path fill="#0681C4" d="M13.6519984,2.34229935 C10.7602186,2.47795069 9.98227269,3.56712782 9.81277462,3.89448914 C10.307783,4.10867546 10.7721178,4.41514701 11.1798651,4.81443263 C11.5693669,5.21239611 11.8856223,5.68651473 12.0998086,6.18152312 C12.4271699,6.01202506 13.5163471,5.2343436 13.6519984,2.34229935"/>
    <path fill="#FF00FF" d="M2.34229935,13.6519984 C2.47795069,10.7602186 3.56712782,9.98227269 3.89448914,9.81277462 C4.10867546,10.307783 4.41514701,10.7721178 4.81443263,11.1798651 C5.21239611,11.5693669 5.68651473,11.8856223 6.18152312,12.0998086 C6.01202506,12.4271699 5.2343436,13.5163471 2.34229935,13.6519984"/>
    <path fill="#FF7BA5" d="M13.6520248,13.6519984 C13.5163735,10.7602186 12.4271964,9.98227269 12.0998351,9.81277462 C11.8856487,10.307783 11.5791772,10.7721178 11.1798916,11.1798651 C10.7819281,11.5693669 10.3078095,11.8856223 9.81280107,12.0998086 C9.98229913,12.4271699 10.7599806,13.5163471 13.6520248,13.6519984"/>
    <path fill="#00AC4A" d="M2.34232579,2.34229935 C5.23410561,2.47795069 6.0120515,3.56712782 6.18154957,3.89448914 C5.68654117,4.10867546 5.22220637,4.41514701 4.81445907,4.81443263 C4.42495727,5.21239611 4.10870191,5.68651473 3.89451558,6.18152312 C3.56715426,6.01202506 2.47797713,5.2343436 2.34232579,2.34229935"/>
    <path fill="#171713" d="M11.5654269,7.9971621 C11.5654269,9.96794072 9.96775562,11.565612 7.996977,11.565612 C6.02619837,11.565612 4.42879147,9.96794072 4.42879147,7.9971621 C4.42879147,6.02638347 6.02619837,4.42871214 7.996977,4.42871214 C9.96775562,4.42871214 11.5654269,6.02638347 11.5654269,7.9971621"/>
  </g>
</svg>
